<?xml version="1.0" encoding="utf-8"?>
<!-- Generator: Adobe Illustrator 28.2.0, SVG Export Plug-In . SVG Version: 6.00 Build 0)  -->
<svg version="1.1" id="Layer_1" xmlns="http://www.w3.org/2000/svg" xmlns:xlink="http://www.w3.org/1999/xlink" x="0px" y="0px"
	 viewBox="0 0 245 245" style="enable-background:new 0 0 245 245;" xml:space="preserve">
<style type="text/css">
	.st0{fill:#E85B81;}
	.st1{fill:#FFFFFF;}
</style>
<path class="st0" d="M230.2,234.3H14.6c-6.7,0-12.2-5.4-12.2-12.2V23.6c0-6.7,5.4-12.2,12.2-12.2h215.7c6.7,0,12.2,5.4,12.2,12.2
	v198.6C242.4,228.9,237,234.3,230.2,234.3z"/>
<g>
	<rect x="81.1" y="172.7" class="st1" width="19.5" height="34"/>
	<g>
		<path class="st1" d="M196.4,169c2.7,1.1,3.9,3.9,4.1,6.6v4.4v13.7v12.9h18.8v-13.5v-13.3v-7.2c0-3.1-2.9-5.6-6.1-5.6h-1
			c3.9,0,7.1-2.9,7.1-6.5v-11V97.8c0-2.3-1.8-4.2-4.1-4.7V93H214h-13.9h-31.6v17.6h31.8v39.1h-31.8v17.6h9
			C180.5,167.2,192.5,167.3,196.4,169z"/>
		<path class="st1" d="M43.9,179.9L43.9,179.9L43.8,167h99.4v28.4v9.1v1.9h19.3v-2.1v-9V55.9V43.2v-1h-0.2c-0.6-2.1-2.6-3.9-5.1-3.9
			h-56.8H87.5h-0.2c-3.4,0-6,2.5-6,5.5v48.9H43.7H28.6h-4.1v56.7V167v12.9v7v19.7h19.5C43.9,206.6,43.9,179.9,43.9,179.9z
			 M43.7,110.4h37.5v33.2h19.2V55.9h42.7v36.8h-36.8v17.6h36.8v39.1H43.7V110.4z"/>
	</g>
</g>
</svg>
