<?xml version="1.0" encoding="utf-8"?>
<!-- Generator: Adobe Illustrator 28.3.0, SVG Export Plug-In . SVG Version: 6.00 Build 0)  -->
<svg version="1.1" id="Layer_1" xmlns="http://www.w3.org/2000/svg" xmlns:xlink="http://www.w3.org/1999/xlink" x="0px" y="0px"
	 viewBox="0 0 245 245" style="enable-background:new 0 0 245 245;" xml:space="preserve">
<style type="text/css">
	.st0{fill:#F9F9F9;}
</style>
<path class="st0" d="M188.1,23.6v21.9h-21.9V23.6H78.8v21.9H56.9V23.6H35v196.9h21.9v-21.9h21.9v21.9h87.5v-21.9h21.9v21.9H210V23.6
	H188.1z M78.8,176.7H56.9v-21.9h21.9V176.7z M78.8,132.9H56.9V111h21.9V132.9z M78.8,89.2H56.9V67.3h21.9V89.2z M188.1,176.7h-21.9
	v-21.9h21.9V176.7z M188.1,132.9h-21.9V111h21.9V132.9z M188.1,89.2h-21.9V67.3h21.9V89.2z"/>
</svg>
